HIERARCHY
ROOT Hips
{
	OFFSET 0.00 0.00 0.00
	CHANNELS 6 Xposition Yposition Zposition Xrotation Yrotation Zrotation
	JOINT LeftUpLeg
	{
		OFFSET 3.65156 0.00000 0.00000
		CHANNELS 3 Xrotation Yrotation Zrotation
		JOINT LeftLeg
		{
			OFFSET 0.00000 -15.70501 0.00000
			CHANNELS 3 Xrotation Yrotation Zrotation
			JOINT LeftFoot
			{
				OFFSET 0.00000 -15.41509 0.00000
				CHANNELS 3 Xrotation Yrotation Zrotation
				JOINT LeftToeBase
				{
					OFFSET 0.00000 -1.53202 5.71759
					CHANNELS 3 Xrotation Yrotation Zrotation
					End Site
					{
						OFFSET 0.00000 0.00000 2.95275
					}
				}
			}
		}
	}
	JOINT RightUpLeg
	{
		OFFSET -3.65156 0.00000 0.00000
		CHANNELS 3 Xrotation Yrotation Zrotation
		JOINT RightLeg
		{
			OFFSET 0.00000 -15.70501 0.00000
			CHANNELS 3 Xrotation Yrotation Zrotation
			JOINT RightFoot
			{
				OFFSET 0.00000 -15.41509 0.00000
				CHANNELS 3 Xrotation Yrotation Zrotation
				JOINT RightToeBase
				{
					OFFSET 0.00000 -1.53202 5.71759
					CHANNELS 3 Xrotation Yrotation Zrotation
					End Site
					{
						OFFSET 0.00000 0.00000 2.95275
					}
				}
			}
		}
	}
	JOINT Spine
	{
		OFFSET 0.00000 0.03937 0.00000
		CHANNELS 3 Xrotation Yrotation Zrotation
		JOINT Spine1
		{
			OFFSET 0.00000 10.20120 0.00000
			CHANNELS 3 Xrotation Yrotation Zrotation
			JOINT Neck
			{
				OFFSET 0.00000 7.85680 0.00000
				CHANNELS 3 Xrotation Yrotation Zrotation
				JOINT Head
				{
					OFFSET 0.00000 6.87959 0.00000
					CHANNELS 3 Xrotation Yrotation Zrotation
					End Site
					{
						OFFSET 0.00000 4.52755 0.00000
					}
				}
			}
			JOINT LeftShoulder
			{
				OFFSET 0.00000 7.85680 0.00000
				CHANNELS 3 Xrotation Yrotation Zrotation
				JOINT LeftArm
				{
					OFFSET 6.70743 -0.00002 0.00000
					CHANNELS 3 Xrotation Yrotation Zrotation
					JOINT LeftForeArm
					{
						OFFSET 10.94108 -0.00004 0.00000
						CHANNELS 3 Xrotation Yrotation Zrotation
						JOINT LeftHand
						{
							OFFSET 8.52742 -0.00003 0.00000
							CHANNELS 3 Xrotation Yrotation Zrotation
							JOINT LeftHandThumb
							{
								OFFSET 0.00000 0.00000 0.00000
								CHANNELS 3 Xrotation Yrotation Zrotation
								End Site
								{
									OFFSET 0.00000 0.00000 3.93700
								}
							}
							JOINT L_Wrist_End
							{
								OFFSET 3.93700 -0.00001 0.00000
								CHANNELS 3 Xrotation Yrotation Zrotation
							}
						}
					}
				}
			}
			JOINT RightShoulder
			{
				OFFSET 0.00000 7.85680 0.00000
				CHANNELS 3 Xrotation Yrotation Zrotation
				JOINT RightArm
				{
					OFFSET -6.70743 -0.00002 0.00000
					CHANNELS 3 Xrotation Yrotation Zrotation
					JOINT RightForeArm
					{
						OFFSET -10.94108 -0.00004 0.00000
						CHANNELS 3 Xrotation Yrotation Zrotation
						JOINT RightHand
						{
							OFFSET -8.52742 -0.00003 0.00000
							CHANNELS 3 Xrotation Yrotation Zrotation
							JOINT RightHandThumb
							{
								OFFSET 0.00000 0.00000 0.00000
								CHANNELS 3 Xrotation Yrotation Zrotation
								End Site
								{
									OFFSET 0.00000 0.00000 3.93700
								}
							}
							JOINT R_Wrist_End
							{
								OFFSET -5.39369 -0.00002 0.00000
								CHANNELS 3 Xrotation Yrotation Zrotation
							}
						}
					}
				}
			}
		}
	}
}
MOTION
Frames: 8
Frame Time: 0.033332
 -2.5230 32.7641 -0.9743 -3.8901 -5.8707 -3.9859 0.5500 6.6575 6.7938 25.1183 -0.0000 0.0000 -21.0866 -2.5583 -3.9501 2.7733 0.0000 0.0000 -1.0891 -6.9775 1.4062 16.0137 -0.0000 0.0000 -20.9517 -1.1173 -1.1376 3.6962 0.0000 0.0000 -3.8603 1.6513 0.2897 15.2174 1.4515 4.3795 -0.1764 0.1209 -4.9867 -21.4948 10.7788 -1.5968 19.9177 9.9888 -3.5130 -18.7392 -42.4953 -71.9207 -0.0000 -13.1567 -0.0000 -9.4799 0.2754 -13.5448 -0.0000 0.0000 -0.0000 -0.0000 0.0000 -0.0000 14.4587 -15.1443 5.5546 -15.6123 32.4062 59.7456 -0.0001 22.4588 0.0000 -31.3014 0.7727 3.4565 -0.0000 -0.0000 0.0000 -0.0000 -0.0000 0.0000
 -2.1115 32.6781 -1.2473 -3.3389 -5.5160 -2.3235 2.4293 4.3572 3.8835 20.0049 -0.0000 0.0000 -20.9047 -0.9670 -2.8367 4.7669 0.0000 0.0000 -7.0908 -5.9345 -1.1805 25.2768 -0.0000 0.0000 -22.8645 -1.9753 -2.6033 3.2333 0.0000 0.0000 -3.2688 1.3627 -0.8903 14.3557 0.8119 3.1005 -0.9916 0.1474 -5.0625 -22.0638 9.8958 -0.6907 19.5198 9.5247 -2.9892 -20.9586 -43.8205 -73.9253 -0.0001 -13.9674 -0.0000 -9.8311 0.2361 -13.9934 -0.0000 -0.0000 0.0000 -0.0000 -0.0000 0.0000 14.2555 -15.6284 5.5148 -15.8458 31.7611 63.2920 -0.0001 22.6107 0.0000 -32.3363 1.8854 4.5038 -0.0000 -0.0000 0.0000 -0.0000 -0.0000 0.0000
 -1.7861 32.5603 -1.5432 -2.9729 -5.0384 -0.8747 3.0181 4.3852 2.0023 17.1958 -0.0000 0.0000 -20.8628 -1.7718 -3.4235 6.0500 -0.0000 0.0000 -13.4231 -5.1718 -3.5450 35.3548 -0.0000 0.0000 -23.0110 -1.6404 -3.7088 2.5428 0.0000 0.0000 -2.8014 1.2035 -1.6207 14.2351 0.1463 1.2951 -1.9201 -0.1301 -5.4042 -23.0463 8.2657 0.6388 19.2879 8.9844 -2.4787 -22.4487 -46.6998 -74.0527 -0.0001 -16.1533 -0.0000 -11.1512 0.5334 -14.0035 -0.0000 0.0000 -0.0000 -0.0000 0.0000 -0.0000 13.8922 -15.9422 5.2823 -16.0788 31.0395 67.8443 -0.0001 21.6092 0.0000 -33.6714 2.2083 5.8537 -0.0000 0.0000 -0.0000 -0.0000 0.0000 -0.0000
 -1.5321 32.5561 -1.8151 -2.6404 -4.2027 0.0713 2.6011 4.9738 0.8867 16.2464 -0.0000 0.0000 -20.1480 -3.2212 -3.7340 6.1501 -0.0000 0.0000 -18.9123 -4.6734 -5.3564 43.9555 -0.0000 0.0000 -22.3148 -0.6509 -4.3143 3.3007 0.0000 0.0000 -2.7850 1.0196 -1.9097 14.8842 -0.4795 -0.1635 -3.0008 -0.7110 -5.7702 -23.3961 6.6266 1.3079 19.6531 8.1272 -2.9000 -25.2535 -49.3885 -73.5383 -0.0001 -16.9303 -0.0000 -10.9899 -0.4598 -14.3020 -0.0000 -0.0000 0.0000 -0.0000 -0.0000 0.0000 14.3214 -15.7706 5.8569 -16.1223 31.5179 71.1347 -0.0001 19.6105 0.0000 -33.9328 1.5416 7.0710 -0.0000 0.0000 -0.0000 -0.0000 0.0000 -0.0000
 -1.3709 32.6178 -2.0070 -3.0037 -2.6182 -0.0534 2.6850 3.7343 0.8258 15.6700 -0.0000 0.0000 -19.4734 -3.5726 -3.8612 6.2224 -0.0000 0.0000 -22.4411 -4.9150 -6.1665 50.9914 -0.0000 0.0000 -22.9651 -0.4356 -4.2341 3.0526 -0.0000 -0.0000 -2.3065 0.6395 -1.7000 15.2861 -0.9854 -0.5325 -3.1571 -1.6418 -6.1591 -23.8017 5.4630 1.5395 19.6608 7.5294 -3.2263 -27.4943 -53.0033 -73.2288 -0.0001 -17.8279 -0.0000 -10.5640 -0.8678 -13.9691 -0.0000 0.0000 -0.0000 -0.0000 0.0000 -0.0000 14.6877 -15.8636 6.1097 -14.9908 33.6951 73.5519 -0.0001 16.9957 0.0000 -32.5230 0.0697 8.7593 -0.0000 0.0000 -0.0000 -0.0000 0.0000 -0.0000
 -1.2596 32.7114 -2.1132 -3.4629 -1.3366 -0.6083 3.3442 2.9614 1.2055 14.5108 -0.0000 0.0000 -18.6002 -3.8625 -3.4821 6.1532 -0.0000 0.0000 -25.0062 -4.8671 -6.2843 56.9645 -0.0000 0.0000 -23.4541 -1.3304 -4.8968 3.4083 0.0000 0.0000 -2.0675 0.5789 -1.4201 15.7403 -0.9569 -0.2144 -2.8473 -2.4883 -6.3167 -24.0111 4.4499 1.7794 19.0174 7.5127 -3.1072 -30.5451 -55.9869 -74.9197 -0.0001 -18.8308 -0.0000 -8.3737 -0.1841 -13.1884 -0.0000 -0.0000 0.0000 -0.0000 -0.0000 0.0000 15.0936 -16.2336 6.3936 -12.9999 36.7155 74.7464 -0.0001 15.0306 0.0000 -27.7982 -2.3688 10.9419 -0.0000 -0.0000 0.0000 -0.0000 -0.0000 0.0000
 -1.2049 32.7968 -2.2005 -3.4859 -0.2939 -1.0396 3.8952 3.0121 1.6683 12.8100 -0.0000 0.0000 -17.7549 -4.7192 -3.8860 6.2611 -0.0000 0.0000 -27.6294 -4.5383 -6.2660 62.4786 -0.0000 0.0000 -23.7152 -1.6810 -5.3169 3.5162 0.0000 0.0000 -2.1157 0.4768 -1.4997 15.7778 -0.8533 0.4334 -2.5500 -2.9480 -6.2941 -23.4770 3.4999 2.2393 18.3818 7.8027 -2.5760 -33.6597 -56.7453 -77.6792 -0.0001 -20.7721 -0.0000 -6.8119 0.2999 -12.3553 -0.0000 0.0000 -0.0000 -0.0000 0.0000 -0.0000 15.6909 -16.3964 6.6801 -10.8338 39.5485 75.2297 -0.0001 13.5933 0.0000 -24.5227 -4.2049 11.6617 -0.0000 0.0000 -0.0000 -0.0000 0.0000 -0.0000
 -1.1836 32.8566 -2.2666 -3.3460 0.7123 -1.2480 4.3633 3.6878 2.0431 11.0219 -0.0000 0.0000 -16.9523 -6.2021 -4.6989 6.2515 -0.0000 0.0000 -29.9279 -4.0787 -6.2988 67.2882 -0.0000 0.0000 -23.7662 -1.7453 -5.2021 3.2880 0.0000 -0.0000 -2.2167 0.2686 -1.7003 15.6527 -0.9106 0.9149 -2.4046 -3.2867 -6.0575 -22.8185 2.6659 2.6492 18.1774 8.0313 -1.9288 -35.9365 -56.1093 -79.7435 -0.0001 -23.3016 -0.0000 -7.6047 0.0672 -12.3840 -0.0000 -0.0000 0.0000 -0.0000 -0.0000 0.0000 16.1169 -16.6231 6.8682 -9.0991 40.7508 75.9109 -0.0000 12.5438 0.0000 -24.1883 -4.9346 11.4114 -0.0000 -0.0000 0.0000 -0.0000 -0.0000 0.0000
